<?xml version="1.0" encoding="iso-8859-1"?>
<!-- Generator: Adobe Illustrator 19.0.0, SVG Export Plug-In . SVG Version: 6.00 Build 0)  -->
<svg version="1.1" id="Layer_1" xmlns="http://www.w3.org/2000/svg" xmlns:xlink="http://www.w3.org/1999/xlink" x="0px" y="0px"
	 viewBox="0 0 512 512" style="enable-background:new 0 0 512 512;" xml:space="preserve">
<g>
	<g>
		<path d="M168.008,164.662h-46.78c-5.767,0-10.444,4.676-10.444,10.444s4.677,10.444,10.444,10.444h35.026
			c-4.657,18.192-21.189,31.68-40.813,31.68c-23.227,0-42.123-18.897-42.123-42.123s18.897-42.123,42.123-42.123
			c10.003,0,19.698,3.566,27.3,10.041c4.388,3.74,10.983,3.214,14.722-1.178c3.74-4.391,3.212-10.983-1.178-14.722
			c-11.376-9.691-25.881-15.028-40.843-15.028c-34.745,0-63.011,28.267-63.011,63.011c0,34.744,28.266,63.012,63.01,63.012
			c34.745,0,63.011-28.267,63.011-63.011C178.452,169.338,173.776,164.662,168.008,164.662z"/>
	</g>
</g>
<g>
	<g>
		<path d="M391.898,0.131c-44.61,0-83.615,24.417-104.325,60.57H31.331C14.055,60.701,0,74.756,0,92.032v388.507
			c0,17.276,14.055,31.331,31.331,31.331h388.507c17.276,0,31.331-14.055,31.331-31.331V234.714
			c1.195-1.408,2.389-2.826,3.587-4.265C492.741,184.794,512,147.66,512,120.075C512,53.937,458.122,0.131,391.898,0.131z
			 M20.887,92.032c0-5.759,4.685-10.444,10.444-10.444h246.807c-4.111,12.085-6.341,25.03-6.341,38.487
			c0,13.481,4.612,29.248,13.75,47.171L20.887,431.905V92.032z M31.331,490.982c-5.759,0-10.444-4.685-10.444-10.444v-19.094
			l275.4-275.401c6.807,10.82,15.034,22.305,24.65,34.426L50.425,490.982H31.331z M79.965,490.982L224.607,346.34l144.641,144.642
			H79.965z M430.282,480.538c0,5.759-4.685,10.444-10.444,10.444h-21.049L239.378,331.569l29.538-29.538l161.366,161.367V480.538z
			 M430.282,433.858L430.282,433.858L283.686,287.261l50.597-50.597c25.631,29.981,49.451,52.119,50.518,53.108
			c2.002,1.854,4.548,2.781,7.096,2.781c2.548,0,5.094-0.927,7.096-2.781c0.791-0.732,14.054-13.061,31.287-31.575V433.858z
			 M391.896,267.706c-33.155-32.178-99.213-105.078-99.213-147.631c0-54.62,44.508-99.057,99.215-99.057
			s99.215,44.437,99.215,99.057C491.113,162.59,425.052,235.514,391.896,267.706z"/>
	</g>
</g>
<g>
	<g>
		<path d="M391.898,61.963c-32.046,0-58.117,26.022-58.117,58.008s26.07,58.009,58.117,58.009c32.047,0,58.121-26.023,58.121-58.009
			S423.945,61.963,391.898,61.963z M391.898,157.093c-20.528,0-37.229-16.652-37.229-37.122c0-20.469,16.701-37.121,37.229-37.121
			c20.531,0,37.234,16.652,37.234,37.121C429.132,140.441,412.429,157.093,391.898,157.093z"/>
	</g>
</g>
<g>
	<g>
		<path d="M292.401,448.163h-4.676c-5.767,0-10.444,4.676-10.444,10.444c0,5.768,4.676,10.444,10.444,10.444h4.676
			c5.768,0,10.444-4.676,10.444-10.444C302.845,452.839,298.169,448.163,292.401,448.163z"/>
	</g>
</g>
<g>
	<g>
		<path d="M253.938,448.163h-101.44c-5.767,0-10.444,4.676-10.444,10.444c0,5.768,4.677,10.444,10.444,10.444h101.44
			c5.767,0,10.444-4.676,10.444-10.444C264.382,452.839,259.705,448.163,253.938,448.163z"/>
	</g>
</g>
<g>
</g>
<g>
</g>
<g>
</g>
<g>
</g>
<g>
</g>
<g>
</g>
<g>
</g>
<g>
</g>
<g>
</g>
<g>
</g>
<g>
</g>
<g>
</g>
<g>
</g>
<g>
</g>
<g>
</g>
</svg>
