<?xml version="1.0" encoding="iso-8859-1"?>
<!-- Generator: Adobe Illustrator 19.0.0, SVG Export Plug-In . SVG Version: 6.00 Build 0)  -->
<svg xmlns="http://www.w3.org/2000/svg" xmlns:xlink="http://www.w3.org/1999/xlink" version="1.1" id="Capa_1" x="0px" y="0px" viewBox="0 0 512 512" style="enable-background:new 0 0 512 512;" xml:space="preserve" width="512px" height="512px">
<g>
	<g>
		<g>
			<path d="M21.334,128h181.333h202.667v128h21.333V117.333v-64C426.633,23.893,402.775,0.035,373.335,0H202.668H53.334     C23.894,0.035,0.036,23.893,0.001,53.333v64V480c0,17.673,14.327,32,32,32h224v-21.333h-224c-5.891,0-10.667-4.776-10.667-10.667     v-10.667h234.667V448H21.334V128z M405.335,53.333v53.333h-192V21.333h160C391.008,21.333,405.335,35.66,405.335,53.333z      M21.334,53.333c0-17.673,14.327-32,32-32h138.667v85.333H21.334V53.333z" fill="#bdbdbd"/>
			<path d="M64.001,32c-17.673,0-32,14.327-32,32s14.327,32,32,32s32-14.327,32-32S81.674,32,64.001,32z M64.001,74.667     c-5.891,0-10.667-4.776-10.667-10.667s4.776-10.667,10.667-10.667S74.668,58.109,74.668,64S69.892,74.667,64.001,74.667z" fill="#bdbdbd"/>
			<path d="M326.966,258.656l20.672-5.333c-15.808-61.203-71.006-103.97-134.217-103.989     c-76.583-0.024-138.686,62.04-138.71,138.623s62.04,138.686,138.623,138.71c11.705-0.005,23.363-1.485,34.699-4.405     l-5.333-20.672c-62.674,16.151-126.583-21.527-142.795-84.185c-2.24-8.657-3.447-17.338-3.708-25.914     c4.231,1.524,9.597,5.197,15.655,13.481c9.288,14.153,24.545,23.274,41.408,24.757c1.248,0.139,2.507,0.139,3.755,0.139     c20.079-1.283,39.032-9.722,53.419-23.787c11.733-12.011,25.749-23.243,40.533-15.552l9.899-18.891     c-30.848-16.107-57.035,10.72-65.664,19.563c-10.878,10.558-25.288,16.704-40.437,17.248     c-10.582-1.112-20.06-7.043-25.685-16.075c-10.745-14.685-21.844-20.694-31.521-22.492c7.035-44.771,39.834-83.307,86.504-95.382     C246.763,158.276,310.744,195.955,326.966,258.656z" fill="#bdbdbd"/>
			<rect x="117.334" y="245.333" width="21.333" height="21.333" fill="#bdbdbd"/>
			<rect x="138.668" y="224" width="21.333" height="21.333" fill="#bdbdbd"/>
			<rect x="362.668" y="53.333" width="21.333" height="21.333" fill="#bdbdbd"/>
			<rect x="320.001" y="53.333" width="21.333" height="21.333" fill="#bdbdbd"/>
			<rect x="277.334" y="53.333" width="21.333" height="21.333" fill="#bdbdbd"/>
			<path d="M508.876,344.459l-64-64c-2-2.001-4.713-3.125-7.541-3.125h-32h-85.333h-21.333h-10.667     c-2.829,0.001-5.541,1.125-7.541,3.125l-64,64c-4.164,4.165-4.164,10.917,0,15.083l60.875,60.875V480c0,17.673,14.327,32,32,32     h106.667c17.673,0,32-14.327,32-32v-59.584l60.875-60.875C513.04,355.376,513.04,348.624,508.876,344.459z M392.81,298.753     c-0.18,0.506-0.373,1.005-0.577,1.498c-0.016,0.04-0.031,0.08-0.047,0.12c-0.221,0.527-0.456,1.046-0.703,1.558     c-0.087,0.179-0.182,0.354-0.272,0.531c-0.155,0.307-0.311,0.613-0.476,0.914c-0.15,0.273-0.307,0.54-0.465,0.808     c-0.112,0.192-0.224,0.384-0.341,0.574c-0.19,0.308-0.385,0.612-0.585,0.913c-0.088,0.133-0.176,0.264-0.266,0.395     c-0.23,0.336-0.465,0.668-0.707,0.994c-0.054,0.073-0.109,0.144-0.163,0.216c-2.124,2.811-4.7,5.262-7.622,7.24     c-0.022,0.015-0.043,0.029-0.065,0.044c-0.409,0.276-0.825,0.543-1.248,0.8c-0.016,0.01-0.033,0.02-0.05,0.03     c-1.718,1.041-3.542,1.923-5.452,2.63c-0.041,0.015-0.082,0.032-0.123,0.047c-3.425,1.251-7.124,1.935-10.982,1.935     c-12.636,0-23.558-7.326-28.759-17.96c-0.032-0.067-0.068-0.131-0.1-0.198c-0.124-0.259-0.238-0.524-0.356-0.786     c-0.11-0.248-0.224-0.493-0.328-0.745c-0.067-0.16-0.127-0.324-0.191-0.485c-0.139-0.351-0.278-0.704-0.405-1.063     c-0.011-0.031-0.021-0.063-0.032-0.095h60.344C392.83,298.695,392.821,298.725,392.81,298.753z M448.001,390.251v-59.584h-21.333     V480c0,5.891-4.776,10.667-10.667,10.667H309.334c-5.891,0-10.667-4.776-10.667-10.667V330.667h-21.333v59.584L239.084,352     l53.333-53.333h6.251h11.733c4.262,20.988,20.665,37.392,41.653,41.653c28.866,5.862,57.018-12.787,62.88-41.653h17.984     L486.252,352L448.001,390.251z" fill="#bdbdbd"/>
			<rect x="384.001" y="448" width="21.333" height="21.333" fill="#bdbdbd"/>
			<rect x="384.001" y="405.333" width="21.333" height="21.333" fill="#bdbdbd"/>
			<rect x="341.335" y="448" width="21.333" height="21.333" fill="#bdbdbd"/>
		</g>
	</g>
</g>
<g>
</g>
<g>
</g>
<g>
</g>
<g>
</g>
<g>
</g>
<g>
</g>
<g>
</g>
<g>
</g>
<g>
</g>
<g>
</g>
<g>
</g>
<g>
</g>
<g>
</g>
<g>
</g>
<g>
</g>
</svg>
